<svg width="36" height="48" viewBox="0 0 36 48" fill="none" xmlns="http://www.w3.org/2000/svg">
<path d="M18.0233 0C7.19041 0 2.57687e-05 9.14062 0 18.1875C-2.30983e-05 26.2969 7.541 34.7382 10.7856 39.2812C15.1377 45.375 13.0562 42.4687 16.4622 47.25C17.1718 47.9062 17.9287 48 18.0233 48L18.0233 0Z" fill="#0077FF"/>
<path d="M17.9767 0C28.8096 0 36 9.14062 36 18.1875C36 26.2969 28.459 34.7382 25.2144 39.2812C20.8623 45.375 22.9438 42.4687 19.5378 47.25C18.8282 47.9062 18.0713 48 17.9767 48L17.9767 0Z" fill="#0077FF"/>
<ellipse cx="17.9767" cy="18" rx="13.3889" ry="13.4062" fill="white"/>
<path d="M20.0201 18.0469L26.4545 11.6037C26.6358 11.4222 26.6358 11.128 26.4545 10.9468C25.1863 9.67697 23.1298 9.67697 21.8616 10.9468L17.3956 15.419L16.4344 14.4566C16.601 14.0338 16.6927 13.5735 16.6927 13.0915C16.6927 11.0389 15.0309 9.375 12.9809 9.375C10.931 9.375 9.26923 11.0389 9.26923 13.0915C9.26923 15.1441 10.931 16.808 12.9809 16.808C13.1565 16.808 13.3285 16.7956 13.4975 16.772L14.7707 18.0469L13.4975 19.3217C13.3285 19.2981 13.1561 19.2857 12.9809 19.2857C10.931 19.2857 9.26923 20.9496 9.26923 23.0022C9.26923 25.0548 10.931 26.7188 12.9809 26.7188C15.0309 26.7188 16.6927 25.0548 16.6927 23.0022C16.6927 22.5202 16.601 22.0599 16.4344 21.6372L17.3956 20.6748L21.8616 25.147C23.1298 26.4168 25.1863 26.4168 26.4545 25.147C26.6358 24.9658 26.6358 24.6716 26.4545 24.49L20.0201 18.0469ZM12.9809 14.3304C12.2989 14.3304 11.7437 13.7744 11.7437 13.0915C11.7437 12.4086 12.2989 11.8527 12.9809 11.8527C13.663 11.8527 14.2182 12.4086 14.2182 13.0915C14.2182 13.7744 13.663 14.3304 12.9809 14.3304ZM12.9809 24.2411C12.2989 24.2411 11.7437 23.6851 11.7437 23.0022C11.7437 22.3193 12.2989 21.7634 12.9809 21.7634C13.663 21.7634 14.2182 22.3193 14.2182 23.0022C14.2182 23.6851 13.663 24.2411 12.9809 24.2411Z" fill="black"/>
</svg>
